<svg xmlns="http://www.w3.org/2000/svg" viewBox="0 0 880 380" width="880" height="380"
     font-family="Inter, -apple-system, BlinkMacSystemFont, 'Segoe UI', 'PingFang SC', sans-serif"
     role="img" aria-label="skillsig architecture: skill folders (SKILL.md allowed-tools plus SKILLSIG.yaml manifest) are parsed, then the scope engine diffs declared scope against actual grants and the lockfile baseline, the verifier checks the Sigstore or ed25519 bundle, and the report prints a TRUSTED / UNSIGNED / SCOPE-DRIFTED table that gates CI">
  <defs>
    <marker id="ah-l" markerWidth="8" markerHeight="8" refX="6" refY="3" orient="auto"><path d="M0,0 L6,3 L0,6 Z" fill="#B9B9C2"/></marker>
  </defs>
  <rect x="0" y="0" width="880" height="380" fill="#F5F5F7"/>

  <!-- trust-boundary frame -->
  <rect x="24" y="26" width="832" height="276" rx="18" fill="none" stroke="#DC2626" stroke-opacity="0.40" stroke-width="1.5" stroke-dasharray="6 5"/>
  <text x="44" y="48" font-size="13" font-weight="600" fill="#B0381C">trust boundary — local-only verify, no network egress</text>

  <!-- connectors -->
  <g stroke="#C9C9D0" stroke-width="1.6" fill="none">
    <line x1="226" y1="172" x2="288" y2="172" marker-end="url(#ah-l)"/>
    <line x1="438" y1="172" x2="500" y2="172" marker-end="url(#ah-l)"/>
    <line x1="650" y1="172" x2="712" y2="172" marker-end="url(#ah-l)"/>
  </g>

  <!-- Skill inputs -->
  <g>
    <rect x="40" y="84" width="186" height="176" rx="15" fill="#475569" fill-opacity="0.08" stroke="#475569" stroke-width="1.5"/>
    <text x="133" y="110" text-anchor="middle" font-size="15" font-weight="600" fill="#334155">Skill folders</text>
    <g font-size="11" fill="#475569">
      <rect x="58" y="126" width="150" height="56" rx="9" fill="#475569" fill-opacity="0.07" stroke="#475569" stroke-width="1.1"/>
      <text x="70" y="144" font-weight="600" fill="#334155">SKILL.md</text>
      <text x="70" y="162">allowed-tools (actuals)</text>
      <text x="70" y="176" fill="#6E6E73">model · network hints</text>
      <rect x="58" y="190" width="150" height="56" rx="9" fill="#DC2626" fill-opacity="0.08" stroke="#DC2626" stroke-width="1.1"/>
      <text x="70" y="208" font-weight="600" fill="#B0381C">SKILLSIG.yaml</text>
      <text x="70" y="226" fill="#B0381C">declares: model · tools</text>
      <text x="70" y="240" fill="#B0381C">fs_write · network_egress</text>
    </g>
  </g>

  <!-- Parser -->
  <g>
    <rect x="288" y="84" width="150" height="176" rx="15" fill="#0071E3" fill-opacity="0.10" stroke="#0071E3" stroke-width="1.5"/>
    <text x="363" y="110" text-anchor="middle" font-size="15" font-weight="600" fill="#0A4F9E">Parser</text>
    <g font-size="11.5" fill="#0A4F9E">
      <text x="363" y="146" text-anchor="middle">FindSkillDirs</text>
      <text x="363" y="170" text-anchor="middle">ParseSkill</text>
      <text x="363" y="200" text-anchor="middle" font-size="10.5" fill="#6E6E73">frontmatter +</text>
      <text x="363" y="216" text-anchor="middle" font-size="10.5" fill="#6E6E73">sidecar manifest</text>
      <text x="363" y="240" text-anchor="middle" font-size="10.5" fill="#6E6E73">→ canonical scope</text>
    </g>
  </g>

  <!-- Scope engine -->
  <g>
    <rect x="500" y="84" width="150" height="176" rx="15" fill="#E97300" fill-opacity="0.11" stroke="#E97300" stroke-width="1.6"/>
    <text x="575" y="110" text-anchor="middle" font-size="15" font-weight="700" fill="#9A4E00">Scope engine</text>
    <g font-size="11" fill="#9A4E00">
      <rect x="516" y="124" width="118" height="40" rx="9" fill="#FFFFFF" fill-opacity="0.6" stroke="#E97300" stroke-width="1.1"/>
      <text x="528" y="140" font-weight="600">allowlist diff</text>
      <text x="528" y="155" font-size="10">tools vs grants</text>
      <rect x="516" y="170" width="118" height="40" rx="9" fill="#FFFFFF" fill-opacity="0.6" stroke="#E97300" stroke-width="1.1"/>
      <text x="528" y="186" font-weight="600">glob match</text>
      <text x="528" y="201" font-size="10">Tool(prefix*)</text>
      <rect x="516" y="216" width="118" height="40" rx="9" fill="#FFFFFF" fill-opacity="0.6" stroke="#E97300" stroke-width="1.1"/>
      <text x="528" y="232" font-weight="600">lockfile drift</text>
      <text x="528" y="247" font-size="10">~/.skillsig/lock</text>
    </g>
  </g>

  <!-- Verifier -->
  <g>
    <rect x="712" y="84" width="128" height="176" rx="15" fill="#5E5CE6" fill-opacity="0.10" stroke="#5E5CE6" stroke-width="1.5"/>
    <text x="776" y="110" text-anchor="middle" font-size="15" font-weight="600" fill="#4B3FC4">Verifier</text>
    <g font-size="11" fill="#4B3FC4">
      <text x="776" y="142" text-anchor="middle">bundle check</text>
      <rect x="726" y="156" width="100" height="34" rx="8" fill="#5E5CE6" fill-opacity="0.10" stroke="#5E5CE6" stroke-width="1.1"/>
      <text x="776" y="177" text-anchor="middle" font-size="10.5">ed25519 (dev)</text>
      <rect x="726" y="196" width="100" height="34" rx="8" fill="#5E5CE6" fill-opacity="0.10" stroke="#5E5CE6" stroke-width="1.1"/>
      <text x="776" y="217" text-anchor="middle" font-size="10.5">Sigstore keyless</text>
    </g>
  </g>

  <!-- Report / verdict row -->
  <g stroke="#C9C9D0" stroke-width="1.6" fill="none">
    <line x1="575" y1="260" x2="575" y2="316" marker-end="url(#ah-l)"/>
  </g>
  <g>
    <rect x="40" y="318" width="800" height="48" rx="13" fill="#10A37F" fill-opacity="0.07" stroke="#10A37F" stroke-width="1.5"/>
    <text x="58" y="347" font-size="13.5" font-weight="600" fill="#0B6B53">Report — 3-color table · CI gate (--ci exits non-zero)</text>
    <g font-size="12" font-weight="700">
      <rect x="470" y="330" width="108" height="24" rx="7" fill="#10A37F" fill-opacity="0.16" stroke="#10A37F" stroke-width="1.1"/>
      <text x="524" y="347" text-anchor="middle" fill="#0B6B53">TRUSTED</text>
      <rect x="586" y="330" width="108" height="24" rx="7" fill="#6E6E73" fill-opacity="0.16" stroke="#6E6E73" stroke-width="1.1"/>
      <text x="640" y="347" text-anchor="middle" fill="#4A4A4F">UNSIGNED</text>
      <rect x="702" y="330" width="120" height="24" rx="7" fill="#DC2626" fill-opacity="0.16" stroke="#DC2626" stroke-width="1.1"/>
      <text x="762" y="347" text-anchor="middle" fill="#B0381C">SCOPE-DRIFTED</text>
    </g>
  </g>
</svg>
